<svg width="144" height="120" viewBox="0 0 144 120" fill="none" xmlns="http://www.w3.org/2000/svg">
<g id="Group">
<g id="Group_2">
<path id="Vector" d="M72 120C111.661 120 143.813 93.1938 143.813 60.1267C143.813 27.0597 111.661 0.253479 72 0.253479C32.3388 0.253479 0.187012 27.0597 0.187012 60.1267C0.187012 93.1938 32.3388 120 72 120Z" fill="url(#paint0_linear_246_405)"/>
<path id="Vector_2" opacity="0.475" d="M30.6835 16.0119C14.414 27.3846 1.8822 43.4429 3.9945 63.9801C7.37443 96.8408 20.07 98.899 35.6891 109.44C17.0106 90.1013 17.396 77.358 16.7063 62.2254C16.0172 47.1028 17.9626 27.8981 30.6835 16.0119Z" fill="white" fill-opacity="0.67925"/>
<path id="Vector_3" opacity="0.611" d="M74.2933 97.63C99.5452 97.63 120.016 81.3597 120.016 61.2893C120.016 41.2189 99.5452 24.9487 74.2933 24.9487C49.0414 24.9487 28.5707 41.2189 28.5707 61.2893C28.5707 81.3597 49.0414 97.63 74.2933 97.63Z" fill="#FF9900"/>
<path id="Vector_4" opacity="0.475" d="M106.423 8.15863C124.76 17.4577 139.23 32.1383 140.57 51.8702C142.298 77.3201 133.94 85.7638 120.758 97.1771C128.823 77.1456 133.277 66.5313 130.836 52.123C128.396 37.7261 121.378 18.2673 106.422 8.15863H106.423Z" fill="#F9FF61" fill-opacity="0.67925"/>
<path id="Vector_5" d="M11.413 44.7403C13.0129 45.5604 15.3242 44.4851 16.5756 42.3386C17.8269 40.1921 17.5444 37.7871 15.9445 36.967C14.3447 36.1469 12.0333 37.2222 10.782 39.3687C9.53064 41.5152 9.81316 43.9202 11.413 44.7403Z" fill="white"/>
<path id="Vector_6" fill-rule="evenodd" clip-rule="evenodd" d="M8.7896 50.7222C6.13364 56.4049 6.44021 62.4395 7.52796 70.3075C8.41217 76.7034 11.8274 85.2846 13.9334 81.9212C14.8998 80.3781 11.9923 65.8037 12.114 62.097C12.2359 58.3903 13.9237 53.7223 12.1102 51.029C11.352 49.9028 9.39378 49.4288 8.78925 50.7225L8.7896 50.7222Z" fill="white"/>
<path id="a" d="M20.6151 74.3024C21.2313 74.3024 21.7309 73.8949 21.7309 73.3922C21.7309 72.8895 21.2313 72.4819 20.6151 72.4819C19.9989 72.4819 19.4994 72.8895 19.4994 73.3922C19.4994 73.8949 19.9989 74.3024 20.6151 74.3024Z" fill="#B56D00" fill-opacity="0.44025"/>
<g id="Group_3">
<path id="Vector_7" fill-rule="evenodd" clip-rule="evenodd" d="M62.5921 8.73888L62.8253 15.7645L71.2111 12.1815L81.6747 13.2722L79.9144 6.32293L84.5413 5.7687L77.3134 3.22484C77.3134 3.22484 74.3708 0.402098 70.1762 0.0307975C65.9817 -0.340477 62.5192 2.73799 61.6998 4.2639C60.8803 5.78981 55.6849 8.24479 55.6849 8.24479L62.5921 8.73888Z" fill="url(#paint1_linear_246_405)"/>
<path id="Vector_8" opacity="0.51" d="M69.6668 3.28763C71.2914 3.28763 72.6083 2.92538 72.6083 2.47853C72.6083 2.03168 71.2914 1.66943 69.6668 1.66943C68.0423 1.66943 66.7253 2.03168 66.7253 2.47853C66.7253 2.92538 68.0423 3.28763 69.6668 3.28763Z" fill="url(#paint2_radial_246_405)"/>
</g>
</g>
</g>
<defs>
<linearGradient id="paint0_linear_246_405" x1="0.187012" y1="60.1267" x2="143.813" y2="60.1267" gradientUnits="userSpaceOnUse">
<stop stop-color="#FFC666"/>
<stop offset="0.48983" stop-color="#FF9900"/>
<stop offset="1" stop-color="#FFBA3A"/>
</linearGradient>
<linearGradient id="paint1_linear_246_405" x1="76.2631" y1="-17.4323" x2="66.1514" y2="21.3077" gradientUnits="userSpaceOnUse">
<stop stop-color="#4C6300"/>
<stop offset="0.26442" stop-color="#276700"/>
<stop offset="1" stop-color="#9CFF19"/>
</linearGradient>
<radialGradient id="paint2_radial_246_405" cx="0" cy="0" r="1" gradientUnits="userSpaceOnUse" gradientTransform="translate(69.6668 2.47866) scale(2.94149 0.809091)">
<stop stop-color="#F1FF1A"/>
<stop offset="1" stop-color="#FFDB00"/>
</radialGradient>
</defs>
</svg>
