<svg width="74" height="94" viewBox="0 0 74 94" fill="none" xmlns="http://www.w3.org/2000/svg">
<g id="Group">
<g id="Group_2">
<path id="Vector" fill-rule="evenodd" clip-rule="evenodd" d="M29.6138 32.0872C29.6138 32.0872 16.2586 28.6379 14.2262 20.7538C12.1939 12.8697 14.2262 4.73921 14.2262 4.00008C14.2262 3.26094 29.4187 8.87698 33.3881 14.348C36.9574 19.2677 36.0011 30.6089 35.4204 31.5944C34.8397 32.5799 29.6138 32.0872 29.6138 32.0872Z" fill="url(#paint0_linear_246_383)"/>
<path id="Vector_2" fill-rule="evenodd" clip-rule="evenodd" d="M32.6623 31.1017C27.748 22.3145 21.1307 13.5265 14.5166 4.73922C14.774 4.70266 25.8177 16.7532 26.6379 18.4748C27.9063 21.1388 32.6623 31.1017 32.6623 31.1017Z" fill="url(#paint1_linear_246_383)"/>
<g id="Group_3">
<path id="Vector_3" fill-rule="evenodd" clip-rule="evenodd" d="M34.0398 30.8965C34.0398 30.8965 25.6356 21.4372 29.4611 14.0484C33.2866 6.65962 40.5689 1.1019 41.0815 0.504372C41.5942 -0.0931594 49.9808 12.0355 49.395 18.441C48.8682 24.2011 40.2287 32.8919 39.0758 33.3985C37.9228 33.9052 34.0398 30.8965 34.0398 30.8965Z" fill="url(#paint2_linear_246_383)"/>
<path id="Vector_4" fill-rule="evenodd" clip-rule="evenodd" d="M37.1879 31.6225C39.3099 22.0641 40.0558 11.6544 40.8037 1.24695C41.0371 1.34596 41.6067 16.6042 41.0757 18.4056C40.2534 21.1927 37.1879 31.6225 37.1879 31.6225Z" fill="url(#paint3_linear_246_383)"/>
</g>
<g id="Group_4">
<path id="Vector_5" fill-rule="evenodd" clip-rule="evenodd" d="M37.7601 30.3251C37.7601 30.3251 36.4651 18.5296 44.2944 13.948C52.1237 9.36648 61.7607 7.8841 62.5669 7.60423C63.373 7.32436 63.0005 21.3834 58.5366 26.5726C54.5223 31.2389 41.7909 34.7821 40.4962 34.6992C39.2015 34.6163 37.7601 30.3251 37.7601 30.3251Z" fill="url(#paint4_linear_246_383)"/>
<path id="Vector_6" fill-rule="evenodd" clip-rule="evenodd" d="M39.9893 32.3464C47.7124 25.1593 54.7914 16.6343 61.8708 8.11215C62.0081 8.30046 53.0468 21.5374 51.4798 22.8335C49.0546 24.8384 39.9893 32.3464 39.9893 32.3464Z" fill="url(#paint5_linear_246_383)"/>
</g>
<g id="Group_5">
<path id="Vector_7" fill-rule="evenodd" clip-rule="evenodd" d="M42.3376 25.3345C42.3376 25.3345 47.3954 17.8113 54.5636 17.7565C61.7318 17.7017 68.4875 20.1286 69.1302 20.2381C69.7728 20.3476 62.5479 28.6551 57.1792 30.2326C52.3514 31.6511 42.6382 29.3959 41.8708 28.9006C41.1035 28.4053 42.3376 25.3345 42.3376 25.3345Z" fill="url(#paint6_linear_246_383)"/>
<path id="Vector_8" fill-rule="evenodd" clip-rule="evenodd" d="M42.7245 27.3145C51.1222 25.6597 59.7831 22.9806 68.4428 20.3033C68.4349 20.4636 56.255 25.3223 54.6317 25.5607C52.12 25.9291 42.7245 27.3145 42.7245 27.3145Z" fill="url(#paint7_linear_246_383)"/>
</g>
<g id="Group_6">
<path id="Vector_9" fill-rule="evenodd" clip-rule="evenodd" d="M30.5906 32.9072C30.5906 32.9072 20.6283 34.7913 15.7592 30.3267C10.89 25.8622 8.46233 19.9874 8.12555 19.5102C7.78877 19.033 19.8926 17.9823 24.8793 20.2926C29.3634 22.3703 33.93 29.9867 34.0143 30.8017C34.0985 31.6167 30.5906 32.9072 30.5906 32.9072Z" fill="url(#paint8_linear_246_383)"/>
<path id="Vector_10" fill-rule="evenodd" clip-rule="evenodd" d="M32.0567 31.3326C24.9654 27.1721 16.8038 23.5353 8.64457 19.898C8.78962 19.7952 21.2188 24.1758 22.5185 25.0348C24.5292 26.3643 32.0567 31.3326 32.0567 31.3326Z" fill="url(#paint9_linear_246_383)"/>
</g>
</g>
<path id="Vector_11" opacity="0.99" d="M70.2728 60.2668C60.0078 75.0332 50.9422 94.3708 36.7069 93.9946C22.087 93.6074 12.79 77.0661 3.14105 60.2668C-6.16043 44.0737 5.24504 22.6942 36.7069 23.4916C68.3902 24.2946 80.9407 44.9205 70.2728 60.2668Z" fill="url(#paint10_linear_246_383)"/>
<path id="Vector_12" opacity="0.99" d="M26.6651 24.0663C2.90881 27.5532 -5.09072 45.9351 3.14107 60.2669C5.98187 65.2126 13.4188 80.8948 18.6148 79.4321C23.0548 78.1826 17.3499 68.402 17.3182 49.3859C17.3022 39.77 39.3389 30.9174 26.665 24.0654L26.6651 24.0663Z" fill="url(#paint11_linear_246_383)"/>
<g id="ay">
<path id="Vector_13" d="M40.3471 32.1458C40.3471 33.1269 39.4708 34.2713 38.2524 34.2713C37.034 34.2713 36.6035 32.8711 36.6035 31.89C36.6035 30.9088 37.0341 30.7183 38.2524 30.7183C39.4708 30.7183 40.3471 31.1647 40.3471 32.1459V32.1458Z" fill="#FFA19C"/>
<path id="Vector_14" d="M40.3651 30.9892C40.3651 32.4518 39.401 34.1577 38.0605 34.1577C36.7201 34.1577 36.2463 32.0704 36.2463 30.6078C36.2463 29.1452 36.7201 28.8611 38.0605 28.8611C39.4011 28.8611 40.3651 29.5267 40.3651 30.9893V30.9892Z" fill="#B40900"/>
<path id="Vector_15" opacity="0.99" d="M39.6936 31.3071C39.6936 32.4547 39.0463 33.7932 38.1462 33.7932C37.2461 33.7932 36.928 32.1555 36.928 31.0078C36.928 29.8602 37.2461 29.6373 38.1462 29.6373C39.0463 29.6373 39.6936 30.1595 39.6936 31.3071Z" fill="url(#paint12_linear_246_383)"/>
</g>
</g>
<defs>
<linearGradient id="paint0_linear_246_383" x1="35.0938" y1="30.391" x2="17.5767" y2="0.108125" gradientUnits="userSpaceOnUse">
<stop stop-color="#4C6300"/>
<stop offset="0.26442" stop-color="#276700"/>
<stop offset="1" stop-color="#9CFF19"/>
</linearGradient>
<linearGradient id="paint1_linear_246_383" x1="14.5166" y1="17.9205" x2="32.6623" y2="17.9205" gradientUnits="userSpaceOnUse">
<stop stop-color="#6EC000"/>
<stop offset="1" stop-color="#6EC000" stop-opacity="0"/>
</linearGradient>
<linearGradient id="paint2_linear_246_383" x1="39.6464" y1="32.2625" x2="40.5259" y2="-1.12553" gradientUnits="userSpaceOnUse">
<stop stop-color="#4C6300"/>
<stop offset="0.26442" stop-color="#276700"/>
<stop offset="1" stop-color="#9CFF19"/>
</linearGradient>
<linearGradient id="paint3_linear_246_383" x1="31.6611" y1="11.9029" x2="44.5898" y2="22.9954" gradientUnits="userSpaceOnUse">
<stop stop-color="#6EC000"/>
<stop offset="1" stop-color="#6EC000" stop-opacity="0"/>
</linearGradient>
<linearGradient id="paint4_linear_246_383" x1="41.685" y1="33.987" x2="58.7684" y2="3.5377" gradientUnits="userSpaceOnUse">
<stop stop-color="#4C6300"/>
<stop offset="0.26442" stop-color="#276700"/>
<stop offset="1" stop-color="#9CFF19"/>
</linearGradient>
<linearGradient id="paint5_linear_246_383" x1="47.4946" y1="13.1032" x2="52.6494" y2="27.951" gradientUnits="userSpaceOnUse">
<stop stop-color="#6EC000"/>
<stop offset="1" stop-color="#6EC000" stop-opacity="0"/>
</linearGradient>
<linearGradient id="paint6_linear_246_383" x1="42.9675" y1="28.8824" x2="68.4946" y2="15.9276" gradientUnits="userSpaceOnUse">
<stop stop-color="#4C6300"/>
<stop offset="0.26442" stop-color="#276700"/>
<stop offset="1" stop-color="#9CFF19"/>
</linearGradient>
<linearGradient id="paint7_linear_246_383" x1="56.9823" y1="18.3509" x2="55.0962" y2="29.4221" gradientUnits="userSpaceOnUse">
<stop stop-color="#6EC000"/>
<stop offset="1" stop-color="#6EC000" stop-opacity="0"/>
</linearGradient>
<linearGradient id="paint8_linear_246_383" x1="33.2607" y1="30.1253" x2="8.09059" y2="16.651" gradientUnits="userSpaceOnUse">
<stop stop-color="#4C6300"/>
<stop offset="0.26442" stop-color="#276700"/>
<stop offset="1" stop-color="#9CFF19"/>
</linearGradient>
<linearGradient id="paint9_linear_246_383" x1="14.6504" y1="28.4081" x2="24.8919" y2="21.1803" gradientUnits="userSpaceOnUse">
<stop stop-color="#6EC000"/>
<stop offset="1" stop-color="#6EC000" stop-opacity="0"/>
</linearGradient>
<linearGradient id="paint10_linear_246_383" x1="0.616985" y1="38.011" x2="73.8825" y2="59.1361" gradientUnits="userSpaceOnUse">
<stop stop-color="#FF1500"/>
<stop offset="1" stop-color="#9A0012"/>
</linearGradient>
<linearGradient id="paint11_linear_246_383" x1="5.80658" y1="27.9489" x2="35.4178" y2="68.4693" gradientUnits="userSpaceOnUse">
<stop stop-color="white"/>
<stop offset="1" stop-color="white" stop-opacity="0.043"/>
</linearGradient>
<linearGradient id="paint12_linear_246_383" x1="37.094" y1="30.5718" x2="40.3105" y2="32.4726" gradientUnits="userSpaceOnUse">
<stop stop-color="#FFF333"/>
<stop offset="1" stop-color="#FFF333" stop-opacity="0"/>
</linearGradient>
</defs>
</svg>
