<svg width="151" height="138" viewBox="0 0 151 138" fill="none" xmlns="http://www.w3.org/2000/svg">
<g id="Group">
<g id="Group_2">
<g id="Group_3">
<path id="Vector" fill-rule="evenodd" clip-rule="evenodd" d="M13.9158 21.37C14.405 19.2025 21.0831 14.4603 23.873 16.7715C25.4236 18.0561 25.7858 25.3693 27.3727 28.516C28.9596 31.6627 42.2421 40.126 45.105 45.1681C51.8353 57.0222 54.635 73.1462 80.0577 82.0784C100.438 89.2395 133.196 80.2319 140.83 84.1769C148.463 88.1224 146.738 90.8773 144.672 93.6073C138.82 101.339 98.1777 128.667 62.6899 112.649C23.6706 95.0391 18.0118 62.1037 21.8269 46.8603C25.6414 31.6162 13.2609 24.2719 13.9159 21.3676L13.9158 21.3676" fill="url(#paint0_linear_246_2)"/>
</g>
<path id="Vector_2" fill-rule="evenodd" clip-rule="evenodd" d="M24.1538 17.8404C25.0373 17.8638 25.0239 21.5491 28.3803 28.518C31.1433 34.2548 40.7854 37.5713 45.0182 45.1104C54.0691 61.2316 59.6606 76.2953 79.155 81.3191C97.4192 86.0265 100.215 84.8779 134.809 83.0211C135.89 82.9631 144.001 83.7447 143.935 87.4582C143.901 89.3315 110.949 94.9003 98.9124 95.8789C78.6439 97.5272 59.2682 89.3292 49.2563 74.808C43.7532 66.8262 40.2723 57.687 36.7457 50.3174C32.9891 42.467 29.9996 36.0926 27.1758 32.4182C26.1362 31.0657 25.5785 29.6298 24.9601 28.25C22.5757 22.9295 21.8832 17.7767 24.1519 17.8369L24.1538 17.8404Z" fill="url(#paint1_linear_246_2)"/>
<path id="Vector_3" fill-rule="evenodd" clip-rule="evenodd" d="M23.23 41.5704C24.6871 52.4005 26.7583 61.707 30.822 68.833C39.8681 84.9453 49.1538 99.9138 69.5283 105.924C87.5606 111.243 103.798 107.649 120.318 103.75C129.259 101.64 136.41 97.1214 145.521 92.4894C137.714 102.479 120.074 112.165 97.4655 116.862C73.765 121.786 53.5637 110.188 40.8255 97.5744C30.6672 87.5161 25.2436 80.1107 22.3311 68.5465C20.3796 60.7974 19.9046 55.5553 23.2297 41.5707L23.23 41.5704Z" fill="url(#paint2_linear_246_2)"/>
<path id="Vector_4" fill-rule="evenodd" clip-rule="evenodd" d="M19.5755 16.2064C16.9043 17.2153 14.1932 19.5678 13.8905 20.9189C13.8473 21.1118 13.8663 21.326 13.9299 21.5592C15.5426 21.6095 17.4431 21.3107 19.3135 20.7128C21.4176 20.0381 23.3289 19.0343 24.6486 17.9111C24.4038 17.1986 24.1354 16.6169 23.8083 16.3455C22.7637 15.479 21.1783 15.6012 19.5754 16.2065L19.5755 16.2064Z" fill="url(#paint3_linear_246_2)"/>
<path id="Vector_5" fill-rule="evenodd" clip-rule="evenodd" d="M146.917 89.797C146.191 87.8374 144.321 85.9007 143.185 85.7274C143.023 85.7025 142.84 85.7252 142.638 85.782C142.515 86.991 142.675 88.4017 143.091 89.7782C143.561 91.3265 144.321 92.7175 145.213 93.661C145.831 93.4484 146.341 93.226 146.588 92.9705C147.378 92.1546 147.353 90.9728 146.917 89.797L146.917 89.797Z" fill="url(#paint4_linear_246_2)"/>
</g>
<g id="Group_4">
<g id="Group_5">
<path id="Vector_6" fill-rule="evenodd" clip-rule="evenodd" d="M7.09988 19.9826C8.20246 18.0573 15.9367 15.5716 17.9037 18.6441C18.9969 20.3519 17.1869 27.4676 17.7662 30.97C18.3454 34.4723 28.4583 46.6676 29.6903 52.3781C32.5864 65.8035 30.4948 82.1083 51.9907 98.4906C69.2229 111.624 102.963 113.083 109.046 119.212C115.128 125.341 112.68 127.448 109.915 129.427C102.085 135.03 55.4664 148.689 26.5052 122.422C-5.33827 93.5422 -1.00902 60.2562 7.10075 46.8315C15.2101 33.4061 5.62376 22.5602 7.10075 19.9803H7.10066" fill="url(#paint5_linear_246_2)"/>
</g>
<path id="Vector_7" fill-rule="evenodd" clip-rule="evenodd" d="M17.8726 19.889C18.7054 20.1822 17.6026 23.7031 18.731 31.3977C19.66 37.732 27.8425 43.8603 29.6351 52.3691C33.4682 70.5637 34.3264 86.6863 51.3673 97.4681C67.3326 107.57 70.3289 107.329 103.756 116.159C104.8 116.434 112.278 119.669 111.116 123.2C110.53 124.982 77.5656 120.206 65.8374 117.452C46.0872 112.814 30.0981 99.0327 24.8784 82.0738C22.0095 72.7522 21.4047 62.9435 20.233 54.8133C18.985 46.1528 18.0294 39.1392 16.4326 34.759C15.8446 33.1465 15.7393 31.6022 15.5598 30.0929C14.8676 24.2728 15.7336 19.132 17.8719 19.8851L17.8726 19.889Z" fill="url(#paint6_linear_246_2)"/>
<path id="Vector_8" fill-rule="evenodd" clip-rule="evenodd" d="M9.8863 42.224C8.06654 53.0355 7.28155 62.5774 9.03662 70.6436C12.8697 88.8382 17.269 106.012 34.8637 118.014C50.4359 128.635 66.9395 130.177 83.8015 131.512C92.9283 132.235 101.065 130.105 111.099 128.466C100.719 135.632 81.0794 139.49 58.1912 137.051C34.1978 134.493 18.4215 117.197 10.0423 101.218C3.35998 88.4762 0.394514 79.7254 1.04771 67.7648C1.48548 59.7502 2.58529 54.5877 9.88586 42.2242L9.8863 42.224Z" fill="url(#paint7_linear_246_2)"/>
<path id="Vector_9" fill-rule="evenodd" clip-rule="evenodd" d="M13.9091 17.2127C11.0661 17.3601 7.78645 18.7844 7.09732 19.9877C6.9989 20.1595 6.95342 20.3709 6.94482 20.6142C8.46562 21.1578 10.364 21.4549 12.3225 21.4559C14.5264 21.4549 16.6442 21.079 18.2341 20.4067C18.2124 19.6478 18.1294 19.0073 17.8984 18.6464C17.1609 17.4942 15.6149 17.1244 13.909 17.2128L13.9091 17.2127Z" fill="url(#paint8_linear_246_2)"/>
<path id="Vector_10" fill-rule="evenodd" clip-rule="evenodd" d="M113.343 126.054C113.233 123.96 112.032 121.538 111.006 121.025C110.86 120.952 110.679 120.918 110.471 120.91C109.997 122.027 109.732 123.424 109.72 124.866C109.709 126.488 110.019 128.049 110.585 129.223C111.235 129.21 111.783 129.153 112.093 128.985C113.084 128.447 113.409 127.31 113.343 126.054L113.343 126.054Z" fill="url(#paint9_linear_246_2)"/>
</g>
</g>
<defs>
<linearGradient id="paint0_linear_246_2" x1="32.6232" y1="139.54" x2="82.2812" y2="60.5247" gradientUnits="userSpaceOnUse">
<stop stop-color="#968500"/>
<stop offset="1" stop-color="#FFD000"/>
</linearGradient>
<linearGradient id="paint1_linear_246_2" x1="94.7877" y1="39.8655" x2="57.0818" y2="97.7323" gradientUnits="userSpaceOnUse">
<stop stop-color="#FFFFEA"/>
<stop offset="1" stop-color="#FFFF00" stop-opacity="0.79245"/>
</linearGradient>
<linearGradient id="paint2_linear_246_2" x1="73.9384" y1="91.048" x2="41.8986" y2="167.064" gradientUnits="userSpaceOnUse">
<stop stop-color="#968500"/>
<stop offset="1" stop-color="#FFD000"/>
</linearGradient>
<linearGradient id="paint3_linear_246_2" x1="18.545" y1="18.4274" x2="24.4435" y2="16.8975" gradientUnits="userSpaceOnUse">
<stop stop-color="#765000"/>
<stop offset="1" stop-color="#FFE700"/>
</linearGradient>
<linearGradient id="paint4_linear_246_2" x1="148.025" y1="88.7614" x2="138.136" y2="98.2637" gradientUnits="userSpaceOnUse">
<stop stop-color="#765000"/>
<stop offset="1" stop-color="#FFE700"/>
</linearGradient>
<linearGradient id="paint5_linear_246_2" x1="-9.94762" y1="138.919" x2="61.0776" y2="79.2817" gradientUnits="userSpaceOnUse">
<stop stop-color="#968500"/>
<stop offset="1" stop-color="#FFD000"/>
</linearGradient>
<linearGradient id="paint6_linear_246_2" x1="78.486" y1="62.6109" x2="25.2192" y2="106.013" gradientUnits="userSpaceOnUse">
<stop stop-color="#FFFFEA"/>
<stop offset="1" stop-color="#FFFF00" stop-opacity="0.79245"/>
</linearGradient>
<linearGradient id="paint7_linear_246_2" x1="43.4599" y1="105.129" x2="-10.1486" y2="167.496" gradientUnits="userSpaceOnUse">
<stop stop-color="#968500"/>
<stop offset="1" stop-color="#FFD000"/>
</linearGradient>
<linearGradient id="paint8_linear_246_2" x1="12.2688" y1="19.027" x2="18.3421" y2="19.3177" gradientUnits="userSpaceOnUse">
<stop stop-color="#765000"/>
<stop offset="1" stop-color="#FFE700"/>
</linearGradient>
<linearGradient id="paint9_linear_246_2" x1="114.699" y1="125.404" x2="102.497" y2="131.419" gradientUnits="userSpaceOnUse">
<stop stop-color="#765000"/>
<stop offset="1" stop-color="#FFE700"/>
</linearGradient>
</defs>
</svg>
